<?xml version="1.0" encoding="utf-8"?>
<!-- Generator: Adobe Illustrator 20.0.0, SVG Export Plug-In . SVG Version: 6.00 Build 0)  -->
<svg version="1.1" id="Layer_1" xmlns="http://www.w3.org/2000/svg" xmlns:xlink="http://www.w3.org/1999/xlink" x="0px" y="0px"
	 viewBox="0 0 205.3 148.7" style="enable-background:new 0 0 205.3 148.7;" xml:space="preserve">
<style type="text/css">
	.Arched_x0020_Green{fill:url(#SVGID_1_);stroke:#FFFFFF;stroke-width:0.25;stroke-miterlimit:1;}
	.st0{fill:#333333;}
</style>
<linearGradient id="SVGID_1_" gradientUnits="userSpaceOnUse" x1="-1195.6666" y1="669.222" x2="-1194.9596" y2="668.5149">
	<stop  offset="0" style="stop-color:#20AC4B"/>
	<stop  offset="0.9831" style="stop-color:#19361A"/>
</linearGradient>
<rect x="-404" y="17.9" width="283.5" height="283.5"/>
<g>
	<defs>
		<path id="SVGID_2_" d="M18.3,78.1c-16.5,6.7-17.6,20-2.6,29.5l49.5,31.2c15,9.5,36.2,5.7,47-8.4l81.6-106.6
			c10.8-14.1,6.2-20.2-10.3-13.4L18.3,78.1z"/>
	</defs>
	<use xlink:href="#SVGID_2_"  style="overflow:visible;fill:#FFDD00;"/>
	<clipPath id="SVGID_3_">
		<use xlink:href="#SVGID_2_"  style="overflow:visible;"/>
	</clipPath>
</g>
<g>
	<path class="st0" d="M40.7,108.5h-11v-30h11V108.5z"/>
	<path class="st0" d="M67.7,78.5v9h-7.3v21h-11v-21h-7.3v-9H67.7z"/>
	<path class="st0" d="M90.3,86.5H79.7v3.1H89v7.2h-9.3v3.8h13.8v8H69.1v-30h21.2V86.5z"/>
	<path class="st0" d="M100.5,77.2L113,90.8l-0.2-12.3h10.4v30l-7.5,1.3l-12.3-13.3l0.1,11.9H93.2v-30L100.5,77.2z"/>
</g>
</svg>
